<mxfile host="app.diagrams.net" modified="2022-01-17T09:59:24.112Z" agent="5.0 (Windows NT 10.0; Win64; x64) AppleWebKit/537.36 (KHTML, like Gecko) Chrome/97.0.4692.71 Safari/537.36" etag="5nmAelHsXlJrASJp4AKF" version="16.2.6" type="github">
  <diagram id="M0WVf2To3Flb4aFUHyW2" name="Page-1">
    <mxGraphModel dx="1040" dy="558" grid="0" gridSize="10" guides="1" tooltips="1" connect="1" arrows="1" fold="1" page="1" pageScale="1" pageWidth="1169" pageHeight="827" math="0" shadow="0">
      <root>
        <mxCell id="0" />
        <mxCell id="1" parent="0" />
        <mxCell id="w6TZy_TVgEyDya5JYvPt-36" value="" style="rounded=0;whiteSpace=wrap;html=1;" parent="1" vertex="1">
          <mxGeometry x="191" y="492" width="556" height="96" as="geometry" />
        </mxCell>
        <mxCell id="w6TZy_TVgEyDya5JYvPt-35" value="" style="rounded=0;whiteSpace=wrap;html=1;" parent="1" vertex="1">
          <mxGeometry x="191" y="91" width="556" height="401" as="geometry" />
        </mxCell>
        <mxCell id="w6TZy_TVgEyDya5JYvPt-2" value="" style="sketch=0;outlineConnect=0;fontColor=#232F3E;gradientColor=none;fillColor=#232F3D;strokeColor=none;dashed=0;verticalLabelPosition=bottom;verticalAlign=top;align=center;html=1;fontSize=12;fontStyle=0;aspect=fixed;pointerEvents=1;shape=mxgraph.aws4.traditional_server;shadow=0;" parent="1" vertex="1">
          <mxGeometry x="233" y="103" width="34.62" height="60" as="geometry" />
        </mxCell>
        <mxCell id="w6TZy_TVgEyDya5JYvPt-3" value="prd-man-ops-es-1&lt;br&gt;8C/32G/2T&lt;br&gt;11.8.1.104" style="text;html=1;align=center;verticalAlign=middle;resizable=0;points=[];autosize=1;strokeColor=none;fillColor=none;sketch=0;shadow=0;rotation=0;" parent="1" vertex="1">
          <mxGeometry x="280.62" y="110" width="105" height="46" as="geometry" />
        </mxCell>
        <mxCell id="w6TZy_TVgEyDya5JYvPt-4" value="prd-man-ops-db-1&lt;br&gt;8C/32G/1T&lt;br&gt;11.8.1.105" style="text;html=1;align=center;verticalAlign=middle;resizable=0;points=[];autosize=1;strokeColor=none;fillColor=none;" parent="1" vertex="1">
          <mxGeometry x="280.62" y="189" width="106" height="46" as="geometry" />
        </mxCell>
        <mxCell id="w6TZy_TVgEyDya5JYvPt-5" value="prd-man-ops-front-1&lt;br&gt;4C/8G/160G&lt;br&gt;11.8.1.106" style="text;html=1;align=center;verticalAlign=middle;resizable=0;points=[];autosize=1;strokeColor=none;fillColor=none;" parent="1" vertex="1">
          <mxGeometry x="280.62" y="264" width="116" height="46" as="geometry" />
        </mxCell>
        <mxCell id="w6TZy_TVgEyDya5JYvPt-7" value="" style="sketch=0;outlineConnect=0;fontColor=#232F3E;gradientColor=none;fillColor=#232F3D;strokeColor=none;dashed=0;verticalLabelPosition=bottom;verticalAlign=top;align=center;html=1;fontSize=12;fontStyle=0;aspect=fixed;pointerEvents=1;shape=mxgraph.aws4.traditional_server;" parent="1" vertex="1">
          <mxGeometry x="233" y="182" width="34.62" height="60" as="geometry" />
        </mxCell>
        <mxCell id="w6TZy_TVgEyDya5JYvPt-8" value="" style="sketch=0;outlineConnect=0;fontColor=#232F3E;gradientColor=none;fillColor=#232F3D;strokeColor=none;dashed=0;verticalLabelPosition=bottom;verticalAlign=top;align=center;html=1;fontSize=12;fontStyle=0;aspect=fixed;pointerEvents=1;shape=mxgraph.aws4.traditional_server;" parent="1" vertex="1">
          <mxGeometry x="233" y="257" width="34.62" height="60" as="geometry" />
        </mxCell>
        <mxCell id="w6TZy_TVgEyDya5JYvPt-9" value="" style="sketch=0;outlineConnect=0;fontColor=#232F3E;gradientColor=none;fillColor=#232F3D;strokeColor=none;dashed=0;verticalLabelPosition=bottom;verticalAlign=top;align=center;html=1;fontSize=12;fontStyle=0;aspect=fixed;pointerEvents=1;shape=mxgraph.aws4.traditional_server;" parent="1" vertex="1">
          <mxGeometry x="233" y="332" width="34.62" height="60" as="geometry" />
        </mxCell>
        <mxCell id="w6TZy_TVgEyDya5JYvPt-10" value="" style="sketch=0;outlineConnect=0;fontColor=#232F3E;gradientColor=none;fillColor=#232F3D;strokeColor=none;dashed=0;verticalLabelPosition=bottom;verticalAlign=top;align=center;html=1;fontSize=12;fontStyle=0;aspect=fixed;pointerEvents=1;shape=mxgraph.aws4.traditional_server;" parent="1" vertex="1">
          <mxGeometry x="233" y="412" width="34.62" height="60" as="geometry" />
        </mxCell>
        <mxCell id="w6TZy_TVgEyDya5JYvPt-11" value="prd-man-ops-node-1&lt;br&gt;4C/8G/160G&lt;br&gt;11.8.1.107" style="text;html=1;align=center;verticalAlign=middle;resizable=0;points=[];autosize=1;strokeColor=none;fillColor=none;" parent="1" vertex="1">
          <mxGeometry x="278.62" y="339" width="119" height="46" as="geometry" />
        </mxCell>
        <mxCell id="w6TZy_TVgEyDya5JYvPt-16" value="elasticsearch/7.16.0" style="text;html=1;align=center;verticalAlign=middle;resizable=0;points=[];autosize=1;strokeColor=none;fillColor=none;" parent="1" vertex="1">
          <mxGeometry x="406.62" y="124" width="116" height="18" as="geometry" />
        </mxCell>
        <mxCell id="w6TZy_TVgEyDya5JYvPt-17" value="influxdb/2.0.9&lt;br&gt;mysql/5.7.28" style="text;html=1;align=center;verticalAlign=middle;resizable=0;points=[];autosize=1;strokeColor=none;fillColor=none;" parent="1" vertex="1">
          <mxGeometry x="423.62" y="196" width="82" height="32" as="geometry" />
        </mxCell>
        <mxCell id="w6TZy_TVgEyDya5JYvPt-19" value="grafana/7.5.12&lt;br&gt;kibana" style="text;html=1;align=center;verticalAlign=middle;resizable=0;points=[];autosize=1;strokeColor=none;fillColor=none;" parent="1" vertex="1">
          <mxGeometry x="421.62" y="271" width="87" height="32" as="geometry" />
        </mxCell>
        <mxCell id="w6TZy_TVgEyDya5JYvPt-20" value="telegraf&lt;br&gt;python&lt;br&gt;logstash" style="text;html=1;align=center;verticalAlign=middle;resizable=0;points=[];autosize=1;strokeColor=none;fillColor=none;" parent="1" vertex="1">
          <mxGeometry x="434.62" y="337" width="60" height="50" as="geometry" />
        </mxCell>
        <mxCell id="w6TZy_TVgEyDya5JYvPt-21" value="docker:&lt;br&gt;elastiflow-1~n&lt;br&gt;python" style="text;html=1;align=center;verticalAlign=middle;resizable=0;points=[];autosize=1;strokeColor=none;fillColor=none;" parent="1" vertex="1">
          <mxGeometry x="423.62" y="419" width="84" height="46" as="geometry" />
        </mxCell>
        <mxCell id="w6TZy_TVgEyDya5JYvPt-22" value="prd-man-ops-node-2&lt;br&gt;4C/8G/160G&lt;br&gt;11.8.1.108" style="text;html=1;align=center;verticalAlign=middle;resizable=0;points=[];autosize=1;strokeColor=none;fillColor=none;" parent="1" vertex="1">
          <mxGeometry x="278.62" y="419" width="119" height="46" as="geometry" />
        </mxCell>
        <mxCell id="w6TZy_TVgEyDya5JYvPt-24" value="1.存储网络流量分析数据&lt;br&gt;&lt;div&gt;&lt;span&gt;2.存储关键设备日志&lt;/span&gt;&lt;/div&gt;" style="text;html=1;align=left;verticalAlign=middle;resizable=0;points=[];autosize=1;strokeColor=none;fillColor=none;rounded=0;glass=0;shadow=0;sketch=0;" parent="1" vertex="1">
          <mxGeometry x="560.62" y="117" width="140" height="32" as="geometry" />
        </mxCell>
        <mxCell id="w6TZy_TVgEyDya5JYvPt-25" value="1.存储时序数据&lt;br&gt;2.存储自定义关系型数据" style="text;html=1;align=left;verticalAlign=middle;resizable=0;points=[];autosize=1;strokeColor=none;fillColor=none;" parent="1" vertex="1">
          <mxGeometry x="560.62" y="197" width="150" height="30" as="geometry" />
        </mxCell>
        <mxCell id="w6TZy_TVgEyDya5JYvPt-26" value="1.自定义大屏展示&lt;br&gt;（zabbix监控页、网络监控页等）&lt;br&gt;2.kibana展示ES数据" style="text;html=1;align=left;verticalAlign=middle;resizable=0;points=[];autosize=1;strokeColor=none;fillColor=none;" parent="1" vertex="1">
          <mxGeometry x="560.62" y="264" width="189" height="46" as="geometry" />
        </mxCell>
        <mxCell id="w6TZy_TVgEyDya5JYvPt-27" value="1.生产机房设备参数采集&lt;br&gt;2.生产机房日志/文件采集" style="text;html=1;align=left;verticalAlign=middle;resizable=0;points=[];autosize=1;strokeColor=none;fillColor=none;" parent="1" vertex="1">
          <mxGeometry x="560.62" y="352" width="150" height="30" as="geometry" />
        </mxCell>
        <mxCell id="w6TZy_TVgEyDya5JYvPt-28" value="1.生产机房网络流量采集器" style="text;html=1;align=left;verticalAlign=middle;resizable=0;points=[];autosize=1;strokeColor=none;fillColor=none;" parent="1" vertex="1">
          <mxGeometry x="560.62" y="432" width="160" height="20" as="geometry" />
        </mxCell>
        <mxCell id="w6TZy_TVgEyDya5JYvPt-30" value="" style="sketch=0;outlineConnect=0;fontColor=#232F3E;gradientColor=none;fillColor=#232F3D;strokeColor=none;dashed=0;verticalLabelPosition=bottom;verticalAlign=top;align=center;html=1;fontSize=12;fontStyle=0;aspect=fixed;pointerEvents=1;shape=mxgraph.aws4.traditional_server;" parent="1" vertex="1">
          <mxGeometry x="233" y="510" width="34.62" height="60" as="geometry" />
        </mxCell>
        <mxCell id="w6TZy_TVgEyDya5JYvPt-31" value="bj-ops-node-1&lt;br&gt;4C/8G/500G" style="text;html=1;align=center;verticalAlign=middle;resizable=0;points=[];autosize=1;strokeColor=none;fillColor=none;" parent="1" vertex="1">
          <mxGeometry x="294" y="524" width="84" height="32" as="geometry" />
        </mxCell>
        <mxCell id="w6TZy_TVgEyDya5JYvPt-32" value="telegraf&lt;br&gt;python&lt;br&gt;netflow" style="text;html=1;align=center;verticalAlign=middle;resizable=0;points=[];autosize=1;strokeColor=none;fillColor=none;" parent="1" vertex="1">
          <mxGeometry x="439.62" y="517" width="50" height="46" as="geometry" />
        </mxCell>
        <mxCell id="w6TZy_TVgEyDya5JYvPt-33" value="1.北京办公设备参数采集" style="text;html=1;align=left;verticalAlign=middle;resizable=0;points=[];autosize=1;strokeColor=none;fillColor=none;" parent="1" vertex="1">
          <mxGeometry x="560.62" y="531" width="140" height="18" as="geometry" />
        </mxCell>
        <mxCell id="w6TZy_TVgEyDya5JYvPt-37" value="北京生产&lt;br&gt;&lt;br&gt;安全管理区" style="text;html=1;strokeColor=#BD7000;fillColor=#f0a30a;align=center;verticalAlign=middle;whiteSpace=wrap;rounded=0;horizontal=1;fontSize=16;fontColor=#000000;sketch=1;" parent="1" vertex="1">
          <mxGeometry x="169" y="91" width="21" height="401" as="geometry" />
        </mxCell>
        <mxCell id="w6TZy_TVgEyDya5JYvPt-42" value="北京办公" style="text;html=1;strokeColor=#B09500;fillColor=#e3c800;align=center;verticalAlign=middle;whiteSpace=wrap;rounded=0;horizontal=1;fontSize=16;fontColor=#000000;sketch=1;glass=0;" parent="1" vertex="1">
          <mxGeometry x="169" y="492" width="21" height="96" as="geometry" />
        </mxCell>
        <mxCell id="w6TZy_TVgEyDya5JYvPt-46" value="&lt;span style=&quot;color: rgb(51 , 51 , 51)&quot;&gt;主机名/配置/IP&lt;/span&gt;" style="rounded=0;whiteSpace=wrap;html=1;shadow=0;glass=0;labelBackgroundColor=none;labelBorderColor=none;sketch=0;fontSize=14;fillColor=#b0e3e6;strokeColor=#0e8088;fontStyle=1" parent="1" vertex="1">
          <mxGeometry x="191" y="68" width="213" height="23" as="geometry" />
        </mxCell>
        <mxCell id="w6TZy_TVgEyDya5JYvPt-47" value="&lt;span style=&quot;color: rgb(51 , 51 , 51)&quot;&gt;服务/版本&lt;/span&gt;" style="rounded=0;whiteSpace=wrap;html=1;shadow=0;glass=0;labelBackgroundColor=none;labelBorderColor=none;sketch=0;fontSize=14;fillColor=#d0cee2;strokeColor=#56517e;fontStyle=1" parent="1" vertex="1">
          <mxGeometry x="404" y="68" width="146" height="23" as="geometry" />
        </mxCell>
        <mxCell id="w6TZy_TVgEyDya5JYvPt-48" value="&lt;span style=&quot;color: rgb(51 , 51 , 51)&quot;&gt;用途&lt;/span&gt;" style="rounded=0;whiteSpace=wrap;html=1;shadow=0;glass=0;labelBackgroundColor=none;labelBorderColor=none;sketch=0;fontSize=14;fillColor=#bac8d3;strokeColor=#23445d;fontStyle=1" parent="1" vertex="1">
          <mxGeometry x="550" y="68" width="197" height="23" as="geometry" />
        </mxCell>
      </root>
    </mxGraphModel>
  </diagram>
</mxfile>
